HIERARCHY
ROOT Hips
{
    OFFSET 0.000000 0.000000 0.000000
    CHANNELS 6 Xposition Yposition Zposition Zrotation Xrotation Yrotation
    JOINT Spine
    {
        OFFSET -0.000000 14.517291 0.000000
        CHANNELS 3 Zrotation Xrotation Yrotation
        JOINT Spine1
        {
            OFFSET -0.000000 37.558300 0.000000
            CHANNELS 3 Zrotation Xrotation Yrotation
            JOINT Neck
            {
                OFFSET -0.000000 37.404057 3.400369
                CHANNELS 3 Zrotation Xrotation Yrotation
                JOINT Head
                {
                    OFFSET -0.000000 24.785618 -3.540803
                    CHANNELS 3 Zrotation Xrotation Yrotation
                    End Site
                    {
                        OFFSET -0.000000 35.408028 0.000000
                    }
                }
            }
            JOINT LeftShoulder
            {
                OFFSET 6.992933 33.973492 -0.192664
                CHANNELS 3 Zrotation Xrotation Yrotation
                JOINT LeftArm
                {
                    OFFSET 21.527611 0.000000 0.000000
                    CHANNELS 3 Zrotation Xrotation Yrotation
                    JOINT LeftForeArm
                    {
                        OFFSET 56.353916 0.000000 0.000000
                        CHANNELS 3 Zrotation Xrotation Yrotation
                        JOINT LeftHand
                        {
                            OFFSET 47.774071 0.000000 0.000000
                            CHANNELS 3 Zrotation Xrotation Yrotation
                            End Site
                            {
                                OFFSET 26.556021 0.000000 0.000000
                            }
                        }
                    }
                }
            }
            JOINT RightShoulder
            {
                OFFSET -7.065357 33.973492 -0.192664
                CHANNELS 3 Zrotation Xrotation Yrotation
                JOINT RightArm
                {
                    OFFSET -21.527611 0.000000 0.000000
                    CHANNELS 3 Zrotation Xrotation Yrotation
                    JOINT RightForeArm
                    {
                        OFFSET -56.353916 0.000000 0.000000
                        CHANNELS 3 Zrotation Xrotation Yrotation
                        JOINT RightHand
                        {
                            OFFSET -47.774071 0.000000 0.000000
                            CHANNELS 3 Zrotation Xrotation Yrotation
                            End Site
                            {
                                OFFSET -26.556021 0.000000 0.000000
                            }
                        }
                    }
                }
            }
        }
    }
    JOINT LeftUpLeg
    {
        OFFSET 17.704014 0.000000 0.000000
        CHANNELS 3 Zrotation Xrotation Yrotation
        JOINT LeftLeg
        {
            OFFSET -0.000000 -81.181816 0.000000
            CHANNELS 3 Zrotation Xrotation Yrotation
            JOINT LeftFoot
            {
                OFFSET -0.000000 -62.821102 0.000000
                CHANNELS 3 Zrotation Xrotation Yrotation
                JOINT LeftToeBase
                {
                    OFFSET -0.000000 -11.507608 26.556021
                    CHANNELS 3 Zrotation Xrotation Yrotation
                    End Site
                    {
                        OFFSET -0.000000 0.000000 7.081605
                    }
                }
            }
        }
    }
    JOINT RightUpLeg
    {
        OFFSET -17.704014 0.000000 0.000000
        CHANNELS 3 Zrotation Xrotation Yrotation
        JOINT RightLeg
        {
            OFFSET -0.000000 -81.181816 0.000000
            CHANNELS 3 Zrotation Xrotation Yrotation
            JOINT RightFoot
            {
                OFFSET -0.000000 -62.821102 0.000000
                CHANNELS 3 Zrotation Xrotation Yrotation
                JOINT RightToeBase
                {
                    OFFSET -0.000000 -11.507608 26.556021
                    CHANNELS 3 Zrotation Xrotation Yrotation
                    End Site
                    {
                        OFFSET -0.000000 0.000000 7.081605
                    }
                }
            }
        }
    }
}
MOTION
Frames:    11
Frame Time:    0.008333
32.210983    161.986923    -99.907753    -2.848641    -1.767133    25.672251    1.858919    -1.440686    -6.755808    -18.368431    -2.221590    -2.613886    15.097595    2.546116    1.162486    10.830976    1.474190    0.711825    13.930532    3.788450    -17.725407    -37.187065    2.161067    -51.135490    -6.280690    -26.384567    -111.975189    -7.599658    -33.545654    -15.885518    -26.341915    -4.883671    -11.998942    0.007767    0.817225    13.666824    20.123533    22.964205    -10.497576    6.005438    25.404585    15.299872    11.609423    4.021711    0.373614    -8.974806    17.647854    -16.630943    2.558315    -19.365719    43.041451    0.000000    0.000000    0.000000    -10.998688    -25.403612    -7.548763    10.533310    25.460176    -13.927347    4.421331    16.032078    -12.826775    0.000000    0.000000    0.000000    
32.223419    161.970520    -99.894341    -2.833094    -1.776630    25.689653    1.853084    -1.455900    -6.750264    -18.354795    -2.194139    -2.607396    15.129756    2.540991    1.160415    10.791848    1.451597    0.701806    13.955818    3.778605    -17.730507    -37.196686    2.161637    -51.174725    -6.253253    -26.409719    -111.972000    -7.624943    -33.531181    -15.894903    -26.318880    -4.908396    -11.993835    0.003975    0.830070    13.662361    20.156847    22.982782    -10.506865    6.046816    25.431078    15.277294    11.598592    4.035651    0.367669    -8.966989    17.660173    -16.646847    2.568022    -19.389359    43.041416    0.000000    0.000000    0.000000    -11.026058    -25.387197    -7.570670    10.552247    25.481747    -13.959411    4.398273    16.003748    -12.800273    0.000000    0.000000    0.000000    
32.238663    161.953003    -99.883286    -2.813336    -1.780997    25.704185    1.842714    -1.465656    -6.743972    -18.324175    -2.178985    -2.602261    15.095262    2.506706    1.166608    10.826186    1.458894    0.711827    13.945661    3.760091    -17.736950    -37.172089    2.195141    -51.189381    -6.217814    -26.470377    -111.983093    -7.657359    -33.540588    -15.908722    -26.330124    -4.894423    -12.015025    0.039997    0.895379    13.693844    20.142328    22.956785    -10.492199    6.083453    25.407125    15.291430    11.581457    4.053082    0.371535    -8.968172    17.657774    -16.637920    2.580430    -19.402206    43.020172    0.000000    0.000000    0.000000    -11.060883    -25.375671    -7.615444    10.558578    25.514902    -13.954285    4.391847    15.954783    -12.770084    0.000000    0.000000    0.000000    
32.254845    161.938980    -99.871185    -2.794675    -1.788182    25.713367    1.833641    -1.482945    -6.741905    -18.300835    -2.159558    -2.598022    15.127070    2.549523    1.172646    10.770200    1.380034    0.719798    13.948113    3.767474    -17.736774    -37.160862    2.204312    -51.214710    -6.202583    -26.503065    -111.999146    -7.687432    -33.549931    -15.925918    -26.330816    -4.874508    -11.991706    0.086843    0.963320    13.693624    20.110254    22.922163    -10.465598    6.074917    25.366171    15.314096    11.560426    4.107366    0.371796    -8.986835    17.492870    -16.512423    2.572987    -19.309256    42.955589    0.000000    0.000000    0.000000    -11.090069    -25.363808    -7.653172    10.561874    25.547781    -13.952489    4.368709    15.914714    -12.734501    0.000000    0.000000    0.000000    
32.269989    161.924088    -99.865028    -2.775811    -1.786070    25.719858    1.818939    -1.500377    -6.733568    -18.270918    -2.139169    -2.591369    15.154947    2.544257    1.179041    10.713963    1.358604    0.716801    13.945321    3.755698    -17.738056    -37.164928    2.203691    -51.230362    -6.205051    -26.470070    -111.986259    -7.731202    -33.511284    -15.995584    -26.333330    -4.846581    -12.000978    0.137676    1.052781    13.710049    20.051634    22.875015    -10.390736    6.060066    25.300179    15.296560    11.545462    4.093360    0.376170    -8.964800    17.643618    -16.644552    2.602435    -19.431698    42.998634    0.000000    0.000000    0.000000    -11.125301    -25.361734    -7.681749    10.570953    25.580795    -13.949607    4.365480    15.876967    -12.710835    0.000000    0.000000    0.000000    
32.282642    161.912354    -99.862740    -2.760725    -1.780942    25.725233    1.806952    -1.522396    -6.729915    -18.252192    -2.121505    -2.586986    15.218345    2.576008    1.185309    10.629292    1.300910    0.713568    13.952706    3.755989    -17.737970    -37.167591    2.213390    -51.251152    -6.191877    -26.477531    -112.003654    -7.711254    -33.507347    -15.982868    -26.316206    -4.847981    -11.977934    0.179790    1.168258    13.708917    19.995726    22.805126    -10.335595    6.048553    25.219158    15.349230    11.527369    4.099658    0.386476    -8.964810    17.642401    -16.649864    2.606620    -19.441860    42.990997    0.000000    0.000000    0.000000    -11.157536    -25.369116    -7.730148    10.570585    25.615759    -13.942995    4.360189    15.859511    -12.685655    0.000000    0.000000    0.000000    
32.289303    161.902542    -99.860550    -2.752171    -1.776242    25.726746    1.796920    -1.544704    -6.724944    -18.232292    -2.107250    -2.582674    15.294491    2.617200    1.191295    10.527905    1.234341    0.708354    13.964045    3.757269    -17.737194    -37.192558    2.194257    -51.265095    -6.216803    -26.419989    -112.029091    -7.684615    -33.492638    -15.966797    -26.301058    -4.844668    -11.945694    0.238895    1.293542    13.695088    19.911901    22.750685    -10.261722    6.128967    25.155476    15.325888    11.521502    4.099978    0.378685    -8.977420    17.649244    -16.665846    2.636003    -19.444916    43.007160    0.000000    0.000000    0.000000    -11.180742    -25.374819    -7.755147    10.579765    25.638762    -13.920067    4.362387    15.834682    -12.685368    0.000000    0.000000    0.000000    
32.301384    161.893600    -99.863449    -2.735029    -1.771157    25.726210    1.784780    -1.554336    -6.719840    -18.213322    -2.097120    -2.578959    15.344863    2.626097    1.196654    10.457031    1.207305    0.701691    13.964458    3.762372    -17.730513    -37.197201    2.200992    -51.281727    -6.214371    -26.418213    -112.088203    -7.623420    -33.507195    -15.908877    -26.274218    -4.849976    -11.928567    0.289253    1.414212    13.701439    19.837801    22.676435    -10.203358    6.178463    25.076115    15.386195    11.497819    4.096616    0.394265    -8.969710    17.668903    -16.681541    2.641741    -19.459179    43.003925    0.000000    0.000000    0.000000    -11.212062    -25.382927    -7.783300    10.581748    25.669920    -13.912024    4.356215    15.821408    -12.663856    0.000000    0.000000    0.000000    
32.306736    161.883423    -99.872940    -2.729959    -1.765847    25.725643    1.785376    -1.559429    -6.710301    -18.203793    -2.096314    -2.575456    15.397518    2.643234    1.190601    10.400826    1.169131    0.686870    13.972643    3.766756    -17.728115    -37.202522    2.218622    -51.302292    -6.214890    -26.391562    -112.071533    -7.654955    -33.474522    -15.950277    -26.240606    -4.856752    -11.914723    0.338454    1.487592    13.708606    19.815809    22.644587    -10.171576    6.156302    25.035025    15.382609    11.490673    4.080911    0.377610    -8.982409    17.693113    -16.681063    2.658210    -19.479874    43.018948    0.000000    0.000000    0.000000    -11.232626    -25.397512    -7.777574    10.602548    25.690716    -13.921090    4.354808    15.808700    -12.668855    0.000000    0.000000    0.000000    
32.316807    161.871796    -99.875229    -2.716685    -1.763822    25.724739    1.776248    -1.568455    -6.702954    -18.180239    -2.080136    -2.570109    15.273516    2.428869    1.148444    10.548832    1.344613    0.633336    13.950015    3.759125    -17.716364    -37.201408    2.232493    -51.305359    -6.234596    -26.345955    -112.097786    -7.663087    -33.458664    -15.965681    -26.216553    -4.862280    -11.911478    0.378404    1.546505    13.730417    19.834797    22.621981    -10.131906    6.089379    24.999685    15.378591    11.466204    4.103450    0.381834    -8.998228    17.563967    -16.565456    2.658541    -19.389143    42.981575    0.000000    0.000000    0.000000    -11.256766    -25.402491    -7.789409    10.610549    25.714684    -13.906397    4.366752    15.785360    -12.662932    0.000000    0.000000    0.000000    
32.325966    161.861237    -99.878380    -2.706264    -1.772418    25.725651    1.777358    -1.569134    -6.696243    -18.169127    -2.067025    -2.565583    15.302205    2.424158    1.137969    10.521428    1.336184    0.615157    13.950943    3.773639    -17.715202    -37.210766    2.234458    -51.320309    -6.233579    -26.341747    -112.144218    -7.650145    -33.464539    -15.915613    -26.168159    -4.860459    -11.884695    0.414201    1.673812    13.729968    19.794897    22.619152    -10.065820    6.149414    24.990398    15.377763    11.463692    4.075473    0.370867    -8.978969    17.745449    -16.674767    2.680832    -19.514032    43.016907    0.000000    0.000000    0.000000    -11.274796    -25.395327    -7.766157    10.637893    25.724627    -13.934932    4.375645    15.773245    -12.672053    0.000000    0.000000    0.000000    
